<?xml version="1.0" encoding="UTF-8" ?>
<svg version="1.1" width="30" height="30" xmlns="http://www.w3.org/2000/svg" shape-rendering="crispEdges">
<rect x="0" y="0" width="30" height="1" fill="#FFFFFF" />
<rect x="0" y="1" width="1" height="29" fill="#FFFFFF" />
<rect x="15" y="1" width="2" height="3" fill="#FFFFFF" />
<rect x="29" y="1" width="1" height="29" fill="#FFFFFF" />
<rect x="14" y="14" width="1" height="1" fill="#FFFFFF" />
<rect x="17" y="14" width="1" height="1" fill="#FFFFFF" />
<rect x="1" y="15" width="3" height="2" fill="#FFFFFF" />
<rect x="15" y="15" width="2" height="2" fill="#FFFFFF" />
<rect x="26" y="15" width="3" height="2" fill="#FFFFFF" />
<rect x="14" y="17" width="1" height="1" fill="#FFFFFF" />
<rect x="17" y="17" width="1" height="1" fill="#FFFFFF" />
<rect x="15" y="24" width="1" height="6" fill="#FFFFFF" />
<rect x="17" y="26" width="1" height="1" fill="#FFFFFF" />
<rect x="19" y="26" width="1" height="1" fill="#FFFFFF" />
<rect x="21" y="26" width="1" height="1" fill="#FFFFFF" />
<rect x="23" y="26" width="1" height="1" fill="#FFFFFF" />
<rect x="25" y="26" width="1" height="1" fill="#FFFFFF" />
<rect x="27" y="26" width="1" height="1" fill="#FFFFFF" />
<rect x="1" y="29" width="14" height="1" fill="#FFFFFF" />
<rect x="16" y="29" width="13" height="1" fill="#FFFFFF" />
</svg>